HIERARCHY
ROOT hip
{
	OFFSET 0.000000 0.000000 0.000000 
	CHANNELS 6 Xposition Yposition Zposition Xrotation Zrotation Yrotation
	JOINT abdomen
	{
		OFFSET 0.000000 3.402643 0.000000 
		CHANNELS 3 Xrotation Zrotation Yrotation
		JOINT chest
		{
			OFFSET 0.000000 8.438565 -0.680529 
			CHANNELS 3 Xrotation Zrotation Yrotation
			JOINT neck
			{
				OFFSET 0.000000 10.207942 -0.272212 
				CHANNELS 3 Xrotation Zrotation Yrotation
				JOINT head
				{
					OFFSET 0.000000 3.130431 0.000000 
					CHANNELS 3 Xrotation Zrotation Yrotation
					End Site
					{
						OFFSET 0.000000 3.130435 0.000000 
					}
				}
			}
			JOINT lCollar
			{
				OFFSET 3.470700 6.669187 -0.816635 
				CHANNELS 3 Yrotation Zrotation Xrotation
				JOINT lShldr
				{
					OFFSET 3.198488 0.000000 0.000000 
					CHANNELS 3 Zrotation Yrotation Xrotation
					JOINT lForeArm
					{
						OFFSET 10.139888 0.000000 0.000000 
						CHANNELS 3 Yrotation Zrotation Xrotation
						JOINT lHand
						{
							OFFSET 8.370511 0.000000 0.000000 
							CHANNELS 3 Zrotation Yrotation Xrotation
							End Site
							{
								OFFSET 4.083176 0.000000 0.000000 
							}
						}
					}
				}
			}
			JOINT rCollar
			{
				OFFSET -3.470700 6.669187 -0.816635 
				CHANNELS 3 Yrotation Zrotation Xrotation
				JOINT rShldr
				{
					OFFSET -3.198488 0.000000 0.000000 
					CHANNELS 3 Zrotation Yrotation Xrotation
					JOINT rForeArm
					{
						OFFSET -10.139888 0.000000 0.000000 
						CHANNELS 3 Yrotation Zrotation Xrotation
						JOINT rHand
						{
							OFFSET -8.370511 0.000000 0.000000 
							CHANNELS 3 Zrotation Yrotation Xrotation
							End Site
							{
								OFFSET -4.083176 0.000000 0.000000 
							}
						}
					}
				}
			}
		}
	}
	JOINT lThigh
	{
		OFFSET 5.308129 -1.633274 1.361059 
		CHANNELS 3 Xrotation Zrotation Yrotation
		JOINT lShin
		{
			OFFSET -2.041588 -20.007561 0.000000 
			CHANNELS 3 Xrotation Zrotation Yrotation
			JOINT lFoot
			{
				OFFSET 0.000000 -19.190928 -1.224953 
				CHANNELS 3 Xrotation Yrotation Zrotation
				End Site
				{
					OFFSET 0.000000 -2.449906 4.627600 
				}
			}
		}
	}
	JOINT rThigh
	{
		OFFSET -5.308129 -1.633274 1.361059 
		CHANNELS 3 Xrotation Zrotation Yrotation
		JOINT rShin
		{
			OFFSET 2.041588 -20.007561 0.000000 
			CHANNELS 3 Xrotation Zrotation Yrotation
			JOINT rFoot
			{
				OFFSET 0.000000 -19.190928 -1.224953 
				CHANNELS 3 Xrotation Yrotation Zrotation
				End Site
				{
					OFFSET 0.000000 -2.449906 4.627600 
				}
			}
		}
	}
}
MOTION
Frames: 13
Frame Time: 0.016667
0.004301 43.616432 -0.458807 15.607117 -0.175774 -0.537137 16.137600 -1.220694 -0.224766 -20.367008 -2.316343 4.720433 50.934017 8.910570 4.320349 -51.075325 -6.161994 -0.353724 9.017555 24.574368 -0.246442 -84.980080 36.974380 -10.411853 -15.656777 -12.231669 -1.059028 -2.902348 33.856960 -0.520834 -3.184186 -25.177158 -1.239372 80.032433 7.582465 15.134272 32.612392 29.072174 6.079885 8.078381 -12.822454 1.900882 -42.893906 4.676329 1.642622 7.371686 -6.393527 -2.894385 7.878005 -1.889079 2.146483 13.543034 -8.036390 -4.450638 28.827524 7.937989 4.560412 -4.886145 -0.294959 -1.060720 
0.007870 43.439732 -0.388798 15.607745 -0.351555 -0.371147 16.310259 -0.888670 -0.107560 -20.367008 -2.316343 4.720433 51.129925 9.016042 4.459959 -50.707745 -6.015623 -0.049583 9.103194 24.551195 -0.406408 -85.104378 36.995106 -10.221172 -16.912453 -12.580257 -1.792127 -2.796531 33.683510 -0.248174 -3.080300 -25.032679 -0.999544 80.026009 7.408519 15.143940 32.618130 29.074844 6.429502 7.813264 -13.353332 1.734852 -42.187679 4.676196 1.618432 7.117125 -6.414400 -3.037165 7.176358 -1.909544 2.307099 14.232544 -7.868711 -3.882662 28.402691 8.171036 4.208537 -3.409415 -1.294198 -0.546020 
0.012593 43.318386 -0.320469 15.607749 -0.361321 -0.361383 16.318264 -0.556641 0.009765 -20.362297 -2.141158 4.720064 51.129925 9.016042 4.459959 -50.358002 -6.044751 0.431412 9.103194 24.551195 -0.406408 -85.177612 36.819904 -10.406652 -17.259914 -12.570913 -1.818477 -2.963721 32.984688 -0.233951 -3.080300 -25.032679 -0.999544 80.078728 7.461622 15.824551 32.599144 28.376688 6.246451 7.807924 -13.517226 1.376400 -41.853291 4.677190 1.617007 7.815295 -6.421118 -3.122924 5.471985 -1.292497 2.308229 15.231412 -7.919069 -4.438566 28.624844 7.916700 4.688694 -2.238390 -1.590965 -0.639265 
0.018663 43.259132 -0.249217 15.617067 -0.537106 -0.195395 16.493673 -0.390625 0.068358 -20.365492 -2.141690 4.544040 51.113613 9.153664 4.353907 -49.997181 -5.897678 0.922141 9.274485 24.551647 -0.393420 -85.195480 36.464031 -10.217254 -17.964354 -12.745457 -1.841248 -3.134516 32.437477 -0.629375 -3.080300 -25.032679 -0.999544 80.005386 7.313252 16.171722 32.597893 28.018316 5.720315 7.287802 -14.057827 1.717885 -41.678143 4.677586 1.591805 8.815215 -6.560565 -3.389960 3.893570 -1.051389 2.394930 16.150673 -7.694669 -4.032793 28.395073 8.181299 4.364950 -0.677072 -2.567237 0.139384 
0.025725 43.245499 -0.176081 15.607901 -0.712887 -0.195419 16.493950 -0.058593 0.185547 -20.188934 -1.966957 4.357925 51.083591 9.048160 4.212731 -49.624062 -5.750215 1.412871 9.274485 24.551647 -0.393420 -85.274887 35.942600 -10.317581 -18.855850 -12.734612 -2.231327 -3.199657 31.745829 -0.442352 -2.992642 -24.878309 -0.750866 79.944588 6.982128 16.355043 32.587936 27.666010 5.371516 7.031528 -14.575574 1.508006 -41.649715 5.058128 1.472582 10.661177 -7.000638 -3.228264 1.623000 -1.015210 2.571565 17.078215 -7.353095 -4.294174 28.302797 7.760733 4.800582 3.544489 -3.613541 0.799591 
0.033354 43.257286 -0.103836 15.605594 -0.722656 -0.009888 16.484789 0.097655 0.244157 -20.192659 -1.967408 4.181913 51.083591 9.048160 4.212731 -49.266983 -5.602427 1.892920 9.274485 24.551647 -0.393420 -85.102348 35.407406 -9.969844 -19.738670 -12.903254 -2.260441 -3.464896 31.023621 -0.987253 -3.163837 -24.876755 -0.737815 80.097870 6.780835 16.381409 32.748463 27.317926 5.366151 7.109679 -15.276573 1.336242 -40.792740 4.861937 1.169158 10.892932 -6.940578 -2.925761 0.559070 -0.555490 2.753280 17.924784 -7.176232 -4.080577 26.862534 7.771523 4.439220 6.957144 -4.856902 1.591671 
0.041129 43.275711 -0.035174 15.605470 -0.878906 -0.000150 16.662867 0.429679 0.361391 -20.193867 -1.792488 4.005610 51.081951 8.804898 4.190402 -49.084126 -5.611056 2.217457 9.454657 24.558718 -0.406078 -85.019051 34.860012 -9.959202 -20.626398 -13.249803 -2.639353 -3.363075 30.503567 -0.822005 -3.071347 -24.894262 -0.589330 80.021317 6.272521 16.594477 32.752254 27.313492 5.192274 6.575655 -15.790246 0.965343 -40.913734 5.223904 1.409328 13.201724 -7.255410 -3.329934 -0.498292 -0.317068 3.246829 17.969040 -7.028385 -3.678809 28.352345 7.653358 4.063192 7.267467 -5.234266 2.058157 
0.048625 43.307053 0.029290 15.791379 -1.064453 -0.019709 16.842300 0.761692 0.478603 -20.188364 -1.792865 3.829915 51.070023 8.551884 4.168134 -48.734303 -5.639100 2.521601 9.537373 24.534729 -0.626588 -84.657845 34.465511 -9.630468 -22.058184 -13.940166 -2.875388 -3.275595 29.778118 -1.354596 -2.986189 -24.924555 -0.362451 80.016373 5.908329 16.439312 32.740879 26.613094 5.539010 6.757518 -16.490147 0.592232 -41.050171 5.575201 1.315433 15.662158 -7.851043 -3.845893 -0.453521 0.190078 3.597837 16.954996 -7.204009 -4.103797 31.404772 7.727380 5.147133 4.492347 -6.367893 1.756451 
0.055418 43.365021 0.090770 15.781461 -1.240234 -0.009975 16.844793 0.927692 0.546961 -20.191187 -1.617800 3.653643 51.057579 8.308695 4.136269 -48.545109 -5.648157 2.679013 9.537373 24.534729 -0.626588 -84.573624 33.582123 -9.549630 -23.120131 -14.098655 -3.090772 -3.532191 29.061766 -1.961892 -2.986189 -24.924555 -0.362451 79.995407 5.366867 16.315443 32.736851 26.436853 5.712513 6.395225 -17.008429 0.208264 -40.822521 5.916617 1.196121 18.197060 -8.240565 -4.339659 0.404036 1.005796 4.100465 15.687744 -7.370472 -3.430511 35.166058 8.000598 5.489745 3.578641 -6.987125 2.778723 
0.061086 43.460541 0.150484 15.967009 -1.240234 -0.009975 17.019152 1.201049 0.820542 -20.186220 -1.618110 3.477932 51.055176 8.065485 4.104457 -48.373898 -5.666037 3.012311 9.526546 24.362190 -0.605000 -84.201057 33.007114 -8.946997 -24.369640 -14.614918 -3.479966 -3.609414 28.320990 -2.476952 -3.069281 -24.766102 -0.192119 79.962639 4.832540 16.160688 32.729622 26.090332 6.071247 6.305152 -17.700512 -0.324847 -40.423687 6.248892 1.097508 19.947075 -8.719907 -4.435059 1.645352 1.440410 4.427706 14.198092 -7.587958 -3.480248 38.426083 7.798878 6.164787 3.612697 -7.894270 3.397466 
0.064954 43.605152 0.209522 15.967039 -1.416016 -0.010004 17.013163 1.367027 0.879355 -20.186230 -1.443163 3.125975 51.059662 7.674914 4.198468 -48.193657 -5.675007 3.160006 9.526546 24.362190 -0.605000 -84.301926 32.317665 -9.037918 -25.623083 -14.953156 -3.515724 -3.862897 27.595203 -3.010107 -3.069281 -24.766102 -0.192119 79.960037 4.102779 15.862309 32.544334 25.734360 6.422608 6.381884 -18.205000 -0.920572 -39.530731 6.443120 0.861209 20.407681 -8.932046 -4.376795 2.400719 2.084734 4.263308 12.488869 -7.694913 -3.316836 41.308140 7.849982 6.319084 3.393558 -8.190910 3.313606 
0.067115 43.806900 0.269929 16.138447 -1.425775 0.165964 17.027044 1.532998 0.937948 -20.011354 -1.443619 2.774279 51.047585 7.431705 4.166833 -48.012596 -5.526887 3.492359 9.526546 24.362190 -0.605000 -84.235611 31.600462 -9.132784 -26.857998 -15.298982 -3.386508 -4.209650 27.205021 -3.769340 -3.049939 -24.591396 -0.170329 79.785538 3.575691 15.536980 32.188789 25.570778 6.259225 6.221510 -18.894697 -1.328231 -38.450882 6.453597 0.839608 20.055582 -8.915774 -4.157846 3.036062 1.481033 4.383805 10.759455 -7.684095 -3.320033 44.010292 7.664370 6.931670 3.050411 -9.087606 4.108225 
0.068903 44.047493 0.330422 16.318897 -1.591770 0.331903 17.026533 1.864918 1.055400 -19.838812 -1.268397 2.422362 51.070858 7.294343 4.273352 -47.828514 -5.359197 3.824756 9.526546 24.362190 -0.605000 -84.226555 31.065924 -8.782247 -27.934334 -15.630830 -3.779927 -4.206456 27.010391 -4.155432 -3.216277 -24.416231 -0.148520 79.451431 2.859969 15.049414 32.010674 25.925138 6.273756 5.428117 -19.595215 -1.511871 -37.370403 6.444275 0.979000 19.595713 -8.589150 -4.374138 3.870855 1.569581 4.576749 7.796887 -7.856209 -3.688761 48.316654 7.322391 7.627516 1.878536 -8.934649 4.076386 
